<svg width="199" height="165" viewBox="0 0 199 165" fill="none" xmlns="http://www.w3.org/2000/svg">
<ellipse cx="99.5" cy="82.5" rx="99.5" ry="82.5" fill="white" fill-opacity="0.95"/>
<path d="M73.5888 101.646C70.5111 101.646 67.849 101.069 65.6023 99.9151C63.371 98.7456 61.709 97.1452 60.6165 95.114C59.5239 93.0827 59.1469 90.7591 59.4854 88.1431H67.7951C67.6258 90.0666 68.2029 91.6439 69.5263 92.875C70.8651 94.1061 72.5885 94.7216 74.6967 94.7216C76.4048 94.7216 77.9744 94.3369 79.4055 93.5675C80.852 92.7981 82.06 91.7363 83.0295 90.3821C83.9989 89.0125 84.6375 87.4429 84.9453 85.6733C85.2377 83.8883 85.1146 82.3033 84.576 80.9183C84.0374 79.518 83.1603 78.4254 81.9446 77.6406C80.7289 76.8558 79.2517 76.4634 77.5128 76.4634C76.1125 76.4634 74.6813 76.7327 73.2195 77.2713C71.773 77.7945 70.565 78.4947 69.5955 79.3718L62.0707 78.1023L68.603 53.7273H96.0249L94.8707 60.8828H74.5121L71.0728 73.4165H71.3498C72.4116 72.3701 73.7965 71.5084 75.5046 70.8313C77.2127 70.1542 79.0285 69.8157 80.9521 69.8157C83.8143 69.8157 86.2533 70.4928 88.2692 71.8469C90.285 73.1857 91.7392 75.04 92.6317 77.4098C93.5397 79.7642 93.732 82.4495 93.2088 85.4656C92.7164 88.5894 91.5469 91.3746 89.7003 93.8214C87.8691 96.2527 85.5608 98.1686 82.7756 99.5689C80.0057 100.954 76.9434 101.646 73.5888 101.646ZM113.706 93.3828L118.969 61.4368H126.24L120.954 93.3828H113.706ZM103.365 81.0337L104.588 73.8089H136.534L135.311 81.0337H103.365Z" fill="#BC5701"/>
<path d="M47.581 128L47.9574 125.812L48.3693 125.791C48.9328 125.758 49.4086 125.557 49.7969 125.188C50.1899 124.818 50.5331 124.224 50.8267 123.405C51.1203 122.586 51.4044 121.487 51.679 120.109L53.0284 113.455H62.5597L60.1449 128H57.5668L59.6264 115.621H55.1307L54.0156 120.926C53.6842 122.517 53.2912 123.836 52.8366 124.882C52.3821 125.929 51.7926 126.71 51.0682 127.226C50.3485 127.742 49.4228 128 48.2912 128H47.581ZM67.7053 128.213C66.6115 128.213 65.7071 127.986 64.9922 127.531C64.2772 127.072 63.7753 126.423 63.4865 125.585C63.2024 124.742 63.1551 123.75 63.3445 122.609C63.5291 121.487 63.9055 120.502 64.4737 119.655C65.0419 118.803 65.7521 118.14 66.6044 117.666C67.4614 117.188 68.4084 116.949 69.4453 116.949C70.1177 116.949 70.7356 117.058 71.299 117.276C71.8625 117.489 72.3383 117.82 72.7266 118.27C73.1148 118.72 73.3823 119.293 73.5291 119.989C73.6759 120.68 73.6688 121.504 73.5078 122.46L73.3871 123.249H64.4382L64.7152 121.516H71.1925C71.2777 121.023 71.2493 120.585 71.1072 120.202C70.9652 119.813 70.7285 119.508 70.397 119.286C70.0656 119.063 69.6513 118.952 69.1541 118.952C68.6475 118.952 68.174 119.082 67.7337 119.342C67.2981 119.598 66.9311 119.929 66.6328 120.337C66.3345 120.744 66.1451 121.172 66.0646 121.622L65.7734 123.284C65.6693 123.966 65.6929 124.522 65.8445 124.953C65.996 125.384 66.2611 125.701 66.6399 125.905C67.0187 126.108 67.4969 126.21 68.0746 126.21C68.4534 126.21 68.8037 126.158 69.1257 126.054C69.4477 125.95 69.7341 125.794 69.9851 125.585C70.2408 125.372 70.4538 125.112 70.6243 124.804L72.9751 125.074C72.7147 125.708 72.3336 126.262 71.8317 126.736C71.3298 127.205 70.7285 127.569 70.0277 127.83C69.3317 128.085 68.5575 128.213 67.7053 128.213ZM75.3473 119.2L75.6882 117.091H85.2337L84.8928 119.2H81.3558L79.8999 128H77.4212L78.87 119.2H75.3473ZM95.2106 128.213C94.1358 128.213 93.2409 127.976 92.5259 127.503C91.8157 127.029 91.3162 126.364 91.0273 125.507C90.7385 124.65 90.6864 123.656 90.8711 122.524C91.0558 121.407 91.4251 120.429 91.979 119.591C92.5378 118.753 93.2409 118.104 94.0884 117.645C94.9407 117.181 95.8948 116.949 96.9506 116.949C98.0255 116.949 98.918 117.188 99.6282 117.666C100.338 118.14 100.838 118.805 101.127 119.662C101.42 120.519 101.475 121.518 101.29 122.659C101.11 123.772 100.739 124.745 100.175 125.578C99.6164 126.411 98.9132 127.06 98.0657 127.524C97.2182 127.983 96.2665 128.213 95.2106 128.213ZM95.4237 126.153C96.0202 126.153 96.5434 125.992 96.9933 125.67C97.4478 125.344 97.8195 124.906 98.1083 124.357C98.4019 123.803 98.6055 123.187 98.7191 122.51C98.8233 121.857 98.8256 121.265 98.7262 120.734C98.6268 120.199 98.4137 119.776 98.087 119.463C97.765 119.146 97.3176 118.987 96.7447 118.987C96.1481 118.987 95.6201 119.153 95.1609 119.484C94.7063 119.811 94.3346 120.251 94.0458 120.805C93.757 121.355 93.5581 121.968 93.4492 122.645C93.3403 123.298 93.3356 123.89 93.435 124.42C93.5344 124.951 93.7475 125.372 94.0742 125.685C94.4009 125.997 94.8507 126.153 95.4237 126.153ZM102.599 128L104.417 117.091H113.636L111.817 128H109.332L110.802 119.2H106.533L105.063 128H102.599ZM117.43 120.642H120.647C122.035 120.642 123.053 120.981 123.701 121.658C124.355 122.335 124.594 123.223 124.419 124.321C124.296 125.036 124.014 125.67 123.574 126.224C123.138 126.778 122.567 127.214 121.862 127.531C121.161 127.844 120.347 128 119.419 128H114.454L116.272 117.091H118.758L117.288 125.891H119.76C120.323 125.891 120.808 125.749 121.216 125.464C121.627 125.18 121.869 124.811 121.94 124.357C122.02 123.883 121.904 123.497 121.592 123.199C121.279 122.901 120.849 122.751 120.299 122.751H117.089L117.43 120.642ZM125.129 128L126.947 117.091H129.525L127.707 128H125.129ZM131.226 119.2L131.567 117.091H141.113L140.772 119.2H137.235L135.779 128H133.3L134.749 119.2H131.226ZM144.003 128.22C143.312 128.22 142.711 128.097 142.199 127.851C141.688 127.6 141.311 127.231 141.07 126.743C140.833 126.255 140.774 125.654 140.892 124.939C140.997 124.323 141.195 123.814 141.489 123.412C141.787 123.009 142.152 122.688 142.583 122.446C143.018 122.2 143.492 122.015 144.003 121.892C144.519 121.769 145.045 121.679 145.58 121.622C146.233 121.556 146.761 121.494 147.164 121.438C147.571 121.381 147.876 121.295 148.08 121.182C148.283 121.063 148.407 120.884 148.449 120.642V120.599C148.534 120.064 148.449 119.65 148.194 119.357C147.938 119.063 147.512 118.916 146.915 118.916C146.29 118.916 145.765 119.054 145.338 119.328C144.912 119.603 144.602 119.927 144.408 120.301L142.078 119.96C142.372 119.297 142.775 118.743 143.286 118.298C143.797 117.848 144.387 117.512 145.054 117.29C145.727 117.062 146.444 116.949 147.206 116.949C147.727 116.949 148.236 117.01 148.733 117.134C149.235 117.257 149.678 117.46 150.061 117.744C150.45 118.024 150.734 118.405 150.914 118.888C151.098 119.371 151.129 119.974 151.006 120.699L149.792 128H147.32L147.576 126.501H147.49C147.287 126.804 147.022 127.089 146.695 127.354C146.368 127.614 145.98 127.825 145.53 127.986C145.08 128.142 144.571 128.22 144.003 128.22ZM144.976 126.331C145.492 126.331 145.956 126.229 146.368 126.026C146.78 125.817 147.119 125.543 147.384 125.202C147.649 124.861 147.815 124.489 147.881 124.087L148.094 122.801C147.999 122.867 147.853 122.929 147.654 122.986C147.455 123.043 147.232 123.092 146.986 123.135C146.745 123.178 146.506 123.215 146.269 123.249C146.032 123.282 145.828 123.31 145.658 123.334C145.265 123.386 144.905 123.471 144.578 123.589C144.257 123.708 143.989 123.874 143.776 124.087C143.568 124.295 143.437 124.565 143.385 124.896C143.31 125.365 143.421 125.723 143.719 125.969C144.017 126.21 144.436 126.331 144.976 126.331Z" fill="#2E305B"/>
</svg>
