<svg width="32" height="30" viewBox="0 0 32 30" fill="none" xmlns="http://www.w3.org/2000/svg">
<path d="M16.0045 15.5358C15.6889 15.5358 15.433 15.2959 15.433 15.0001C15.433 14.7042 15.6889 14.4644 16.0045 14.4644" stroke="white" stroke-linecap="round" stroke-linejoin="round"/>
<path d="M16.0045 15.5358C16.32 15.5358 16.5759 15.2959 16.5759 15.0001C16.5759 14.7042 16.32 14.4644 16.0045 14.4644" stroke="white" stroke-linecap="round" stroke-linejoin="round"/>
<path d="M9.71877 15.5358C9.40318 15.5358 9.14734 15.2959 9.14734 15.0001C9.14734 14.7042 9.40318 14.4644 9.71877 14.4644" stroke="white" stroke-linecap="round" stroke-linejoin="round"/>
<path d="M9.71875 15.5358C10.0343 15.5358 10.2902 15.2959 10.2902 15.0001C10.2902 14.7042 10.0343 14.4644 9.71875 14.4644" stroke="white" stroke-linecap="round" stroke-linejoin="round"/>
<path d="M22.2902 15.5358C21.9746 15.5358 21.7188 15.2959 21.7188 15.0001C21.7188 14.7042 21.9746 14.4644 22.2902 14.4644" stroke="white" stroke-linecap="round" stroke-linejoin="round"/>
<path d="M22.2902 15.5358C22.6057 15.5358 22.8617 15.2959 22.8617 15.0001C22.8617 14.7042 22.6057 14.4644 22.2902 14.4644" stroke="white" stroke-linecap="round" stroke-linejoin="round"/>
<path d="M15.9958 1.20117C13.3333 1.20195 10.7209 1.87975 8.43688 3.16236C6.15283 4.44499 4.28264 6.2844 3.02549 8.48469C1.76835 10.685 1.17134 13.1637 1.29806 15.657C1.42477 18.1502 2.27046 20.5645 3.74506 22.6427L1.27679 28.7994L9.54207 27.3981C11.5323 28.3099 13.7164 28.7889 15.9316 28.7991C18.1467 28.8094 20.3358 28.3509 22.3356 27.4575C24.3353 26.5644 26.0944 25.2594 27.4812 23.64C28.8681 22.0209 29.8476 20.1289 30.3458 18.1055C30.8444 16.082 30.8494 13.9791 30.3602 11.9537C29.8711 9.92818 28.9008 8.03231 27.5214 6.40738C26.142 4.78243 24.389 3.47036 22.3935 2.56892C20.3979 1.66748 18.211 1.19995 15.9958 1.20117Z" stroke="white" stroke-linecap="round" stroke-linejoin="round"/>
</svg>
