<svg width="69" height="57" viewBox="0 0 69 57" fill="none" xmlns="http://www.w3.org/2000/svg">
<path d="M10.7143 36.4877H1.08694" stroke="black" stroke-linecap="round" stroke-linejoin="round"/>
<path d="M67.9126 36.4877H58.2852" stroke="black" stroke-linecap="round" stroke-linejoin="round"/>
<path d="M10.7143 20.5122H1.08694" stroke="black" stroke-linecap="round" stroke-linejoin="round"/>
<path d="M67.9126 20.5122H58.2852" stroke="black" stroke-linecap="round" stroke-linejoin="round"/>
<path d="M24.81 8.89285V0.956787" stroke="black" stroke-linecap="round" stroke-linejoin="round"/>
<path d="M24.81 56.0428V48.1067" stroke="black" stroke-linecap="round" stroke-linejoin="round"/>
<path d="M44.19 8.89285V0.956787" stroke="black" stroke-linecap="round" stroke-linejoin="round"/>
<path d="M44.19 56.0428V48.1067" stroke="black" stroke-linecap="round" stroke-linejoin="round"/>
<path d="M53 8.89282H16C13.0808 8.89282 10.7143 10.8436 10.7143 13.25V43.75C10.7143 46.1564 13.0808 48.1071 16 48.1071H53C55.9193 48.1071 58.2857 46.1564 58.2857 43.75V13.25C58.2857 10.8436 55.9193 8.89282 53 8.89282Z" stroke="black" stroke-linecap="round" stroke-linejoin="round"/>
<path d="M22.168 29.5926C20.6811 29.3793 20.681 27.6198 22.168 27.4065C27.5549 26.634 31.8394 23.2517 33.0086 18.8487L33.0983 18.5112C33.42 17.2999 35.5124 17.2923 35.847 18.5013L35.9558 18.8947C37.1683 23.2769 41.454 26.6306 46.8259 27.4009C48.3205 27.6153 48.3205 29.3838 46.8259 29.5982C41.454 30.3685 37.1683 33.7222 35.9558 38.1044L35.847 38.4978C35.5124 39.7068 33.42 39.6993 33.0983 38.4879L33.0086 38.1504C31.8394 33.7474 27.5549 30.3651 22.168 29.5926Z" stroke="black" stroke-linecap="round" stroke-linejoin="round"/>
</svg>
