<svg width="75" height="61" viewBox="0 0 75 61" fill="none" xmlns="http://www.w3.org/2000/svg">
<path d="M53.3571 15.25V50.1072C53.3571 52.4182 52.2434 54.6347 50.2608 56.269C48.2783 57.9034 45.5894 58.8214 42.7857 58.8214H3.14285C5.94655 58.8214 8.63545 57.9034 10.618 56.269C12.6005 54.6347 13.7143 52.4182 13.7143 50.1072V10.8929C13.7143 8.58172 14.828 6.36519 16.8106 4.73096C18.7931 3.0967 21.482 2.17859 24.2857 2.17859H62.6071" stroke="black" stroke-linecap="round" stroke-linejoin="round"/>
<path d="M62.6071 2.17859C65.0602 2.17859 67.4129 2.98193 69.1477 4.41189C70.8825 5.84186 71.8571 7.78131 71.8571 9.80359V13.0714C71.8571 13.6492 71.5786 14.2034 71.0833 14.6119C70.5875 15.0205 69.9152 15.25 69.2143 15.25H53.3571V9.80359C53.3571 7.78131 54.3318 5.84186 56.0666 4.41189C57.8014 2.98193 60.154 2.17859 62.6071 2.17859Z" stroke="black" stroke-linecap="round" stroke-linejoin="round"/>
<path d="M32.2143 17.4286H40.1429" stroke="black" stroke-linecap="round" stroke-linejoin="round"/>
<path d="M26.9286 30.5H40.1428" stroke="black" stroke-linecap="round" stroke-linejoin="round"/>
<path d="M26.9286 43.5714H40.1428" stroke="black" stroke-linecap="round" stroke-linejoin="round"/>
</svg>
