<svg width="20" height="23" viewBox="0 0 20 23" fill="none" xmlns="http://www.w3.org/2000/svg">
<g clip-path="url(#clip0_148_142)">
<path d="M18.3333 2.875H1.66667C0.745833 2.875 0 3.73271 0 4.79167V18.2083C0 19.2673 0.745833 20.125 1.66667 20.125H18.3333C19.2542 20.125 19.9917 19.2673 19.9917 18.2083L20 4.79167C20 3.73271 19.2542 2.875 18.3333 2.875ZM6.66667 5.75C8.04583 5.75 9.16667 7.03896 9.16667 8.625C9.16667 10.2158 8.04583 11.5 6.66667 11.5C5.2875 11.5 4.16667 10.2158 4.16667 8.625C4.16667 7.03896 5.2875 5.75 6.66667 5.75ZM11.6667 17.25H1.66667V16.2917C1.66667 14.375 5 13.3208 6.66667 13.3208C8.33333 13.3208 11.6667 14.375 11.6667 16.2917V17.25ZM14.875 13.4167H16.2417L17.5 15.3333L15.8375 17.2452C14.75 16.306 13.9375 14.9692 13.5625 13.4167C13.4167 12.8033 13.3333 12.166 13.3333 11.5C13.3333 10.834 13.4167 10.1967 13.5667 9.58333C13.9375 8.03083 14.75 6.69396 15.8417 5.75479L17.5 7.66667L16.2417 9.58333H14.875C14.6917 10.1823 14.5833 10.8292 14.5833 11.5C14.5833 12.1708 14.6875 12.8177 14.875 13.4167Z" fill="#989595"/>
</g>
<defs>
<clipPath id="clip0_148_142">
<rect width="20" height="23" fill="white"/>
</clipPath>
</defs>
</svg>
