<svg width="75" height="61" viewBox="0 0 75 61" fill="none" xmlns="http://www.w3.org/2000/svg">
<path d="M60.5758 31.8871C61.1197 30.0542 61.4078 28.1388 61.4078 26.1678C61.4078 12.9189 48.3788 2.17859 32.3064 2.17859C16.234 2.17859 3.2048 12.9189 3.2048 26.1678C3.2048 36.0083 10.3926 44.4647 20.6764 48.1647" stroke="black" stroke-linecap="round" stroke-linejoin="round"/>
<path d="M3.2048 26.1674H61.4078" stroke="black" stroke-linecap="round" stroke-linejoin="round"/>
<path d="M23.6613 37.24C22.2095 33.6841 21.3418 29.9606 21.1041 26.1678C21.6539 17.3951 25.5737 8.9939 32.297 2.17859C39.0203 8.9939 42.9402 17.3951 43.49 26.1678C43.3931 27.7136 43.1916 29.2479 42.8885 30.764" stroke="black" stroke-linecap="round" stroke-linejoin="round"/>
<path d="M50.4944 35.6327L71.7927 43.2396L50.4944 50.8466L29.1959 43.2396L50.4944 35.6327Z" stroke="black" stroke-linecap="round" stroke-linejoin="round"/>
<path d="M38.8585 46.7095L38.8796 54.9863C38.8796 54.9863 42.396 58.8219 50.4923 58.8219C58.5884 58.8219 62.1235 54.9863 62.1235 54.9863L62.1214 46.7095" stroke="black" stroke-linecap="round" stroke-linejoin="round"/>
<path d="M29.1959 56.6206V43.2395" stroke="black" stroke-linecap="round" stroke-linejoin="round"/>
</svg>
